<?xml version="1.0" encoding="UTF-8" standalone="no"?>
<!DOCTYPE svg PUBLIC "-//W3C//DTD SVG 1.1//EN"
 "http://www.w3.org/Graphics/SVG/1.1/DTD/svg11.dtd">
<!-- Generated by graphviz version 2.43.0 (0)
 -->
<!-- Pages: 1 -->
<svg width="2738pt" height="305pt"
 viewBox="0.00 0.00 2737.71 305.00" xmlns="http://www.w3.org/2000/svg" xmlns:xlink="http://www.w3.org/1999/xlink">
<g id="graph0" class="graph" transform="scale(1 1) rotate(0) translate(4 301)">
<polygon fill="white" stroke="transparent" points="-4,4 -4,-301 2733.71,-301 2733.71,4 -4,4"/>
<!-- 地理地区_硚口区 -->
<g id="node1" class="node">
<title>地理地区_硚口区</title>
<ellipse fill="none" stroke="black" cx="434" cy="-279" rx="80" ry="18"/>
<text text-anchor="middle" x="434" y="-275.3" font-family="Times,serif" font-size="14.00">地理地区_硚口区</text>
</g>
<!-- 度量_约67万人 -->
<g id="node2" class="node">
<title>度量_约67万人</title>
<ellipse fill="none" stroke="black" cx="434" cy="-192" rx="70.39" ry="18"/>
<text text-anchor="middle" x="434" y="-188.3" font-family="Times,serif" font-size="14.00">度量_约67万人</text>
</g>
<!-- 地理地区_硚口区&#45;&gt;度量_约67万人 -->
<g id="edge1" class="edge">
<title>地理地区_硚口区&#45;&gt;度量_约67万人</title>
<path fill="none" stroke="black" d="M434,-260.8C434,-249.16 434,-233.55 434,-220.24"/>
<polygon fill="black" stroke="black" points="437.5,-220.18 434,-210.18 430.5,-220.18 437.5,-220.18"/>
<text text-anchor="middle" x="448.5" y="-231.8" font-family="Times,serif" font-size="14.00">人口</text>
</g>
<!-- 地理地区_武汉市 -->
<g id="node3" class="node">
<title>地理地区_武汉市</title>
<ellipse fill="none" stroke="black" cx="602" cy="-192" rx="80" ry="18"/>
<text text-anchor="middle" x="602" y="-188.3" font-family="Times,serif" font-size="14.00">地理地区_武汉市</text>
</g>
<!-- 地理地区_硚口区&#45;&gt;地理地区_武汉市 -->
<g id="edge2" class="edge">
<title>地理地区_硚口区&#45;&gt;地理地区_武汉市</title>
<path fill="none" stroke="black" d="M465.21,-262.21C492.44,-248.43 532.11,-228.36 561.73,-213.38"/>
<polygon fill="black" stroke="black" points="563.63,-216.34 570.97,-208.7 560.47,-210.1 563.63,-216.34"/>
<text text-anchor="middle" x="543.5" y="-231.8" font-family="Times,serif" font-size="14.00">位于</text>
</g>
<!-- 地理地区_中华人民共和国湖北省武汉市 -->
<g id="node4" class="node">
<title>地理地区_中华人民共和国湖北省武汉市</title>
<ellipse fill="none" stroke="black" cx="173" cy="-192" rx="173" ry="18"/>
<text text-anchor="middle" x="173" y="-188.3" font-family="Times,serif" font-size="14.00">地理地区_中华人民共和国湖北省武汉市</text>
</g>
<!-- 地理地区_硚口区&#45;&gt;地理地区_中华人民共和国湖北省武汉市 -->
<g id="edge3" class="edge">
<title>地理地区_硚口区&#45;&gt;地理地区_中华人民共和国湖北省武汉市</title>
<path fill="none" stroke="black" d="M390.61,-263.87C347.49,-249.82 281.01,-228.17 232.87,-212.5"/>
<polygon fill="black" stroke="black" points="233.79,-209.12 223.2,-209.35 231.62,-215.78 233.79,-209.12"/>
<text text-anchor="middle" x="334.5" y="-231.8" font-family="Times,serif" font-size="14.00">位于</text>
</g>
<!-- 地理地区_湖北省 -->
<g id="node5" class="node">
<title>地理地区_湖北省</title>
<ellipse fill="none" stroke="black" cx="148" cy="-105" rx="80" ry="18"/>
<text text-anchor="middle" x="148" y="-101.3" font-family="Times,serif" font-size="14.00">地理地区_湖北省</text>
</g>
<!-- 地理地区_武汉市&#45;&gt;地理地区_湖北省 -->
<g id="edge4" class="edge">
<title>地理地区_武汉市&#45;&gt;地理地区_湖北省</title>
<path fill="none" stroke="black" d="M543.13,-179.7C533.08,-177.79 522.74,-175.83 513,-174 390.41,-150.96 359.6,-146.04 237,-123 230.46,-121.77 223.65,-120.48 216.83,-119.19"/>
<polygon fill="black" stroke="black" points="217.36,-115.73 206.88,-117.3 216.05,-122.6 217.36,-115.73"/>
<text text-anchor="middle" x="427.5" y="-144.8" font-family="Times,serif" font-size="14.00">位于</text>
</g>
<!-- 组织_中华人民共和国 -->
<g id="node6" class="node">
<title>组织_中华人民共和国</title>
<ellipse fill="none" stroke="black" cx="345" cy="-105" rx="99" ry="18"/>
<text text-anchor="middle" x="345" y="-101.3" font-family="Times,serif" font-size="14.00">组织_中华人民共和国</text>
</g>
<!-- 地理地区_武汉市&#45;&gt;组织_中华人民共和国 -->
<g id="edge5" class="edge">
<title>地理地区_武汉市&#45;&gt;组织_中华人民共和国</title>
<path fill="none" stroke="black" d="M558.99,-176.77C515.41,-162.36 447.82,-140 400.29,-124.28"/>
<polygon fill="black" stroke="black" points="401.35,-120.95 390.76,-121.13 399.16,-127.59 401.35,-120.95"/>
<text text-anchor="middle" x="503.5" y="-144.8" font-family="Times,serif" font-size="14.00">组织</text>
</g>
<!-- 地理地区_江岸区沿江大道188号 -->
<g id="node7" class="node">
<title>地理地区_江岸区沿江大道188号</title>
<ellipse fill="none" stroke="black" cx="602" cy="-105" rx="139.98" ry="18"/>
<text text-anchor="middle" x="602" y="-101.3" font-family="Times,serif" font-size="14.00">地理地区_江岸区沿江大道188号</text>
</g>
<!-- 地理地区_武汉市&#45;&gt;地理地区_江岸区沿江大道188号 -->
<g id="edge6" class="edge">
<title>地理地区_武汉市&#45;&gt;地理地区_江岸区沿江大道188号</title>
<path fill="none" stroke="black" d="M602,-173.8C602,-162.16 602,-146.55 602,-133.24"/>
<polygon fill="black" stroke="black" points="605.5,-133.18 602,-123.18 598.5,-133.18 605.5,-133.18"/>
<text text-anchor="middle" x="616.5" y="-144.8" font-family="Times,serif" font-size="14.00">位于</text>
</g>
<!-- 地理地区_中国中部暨长江中游地区第一大城市[7] -->
<g id="node8" class="node">
<title>地理地区_中国中部暨长江中游地区第一大城市[7]</title>
<ellipse fill="none" stroke="black" cx="970" cy="-105" rx="210.66" ry="18"/>
<text text-anchor="middle" x="970" y="-101.3" font-family="Times,serif" font-size="14.00">地理地区_中国中部暨长江中游地区第一大城市[7]</text>
</g>
<!-- 地理地区_武汉市&#45;&gt;地理地区_中国中部暨长江中游地区第一大城市[7] -->
<g id="edge7" class="edge">
<title>地理地区_武汉市&#45;&gt;地理地区_中国中部暨长江中游地区第一大城市[7]</title>
<path fill="none" stroke="black" d="M655.91,-178.55C717.78,-164.26 819.84,-140.69 890.76,-124.3"/>
<polygon fill="black" stroke="black" points="891.59,-127.7 900.55,-122.04 890.02,-120.88 891.59,-127.7"/>
<text text-anchor="middle" x="823.5" y="-144.8" font-family="Times,serif" font-size="14.00">位于</text>
</g>
<!-- 地理地区_国家历史文化名城[11] -->
<g id="node9" class="node">
<title>地理地区_国家历史文化名城[11]</title>
<ellipse fill="none" stroke="black" cx="1340.02" cy="-105" rx="141.07" ry="18"/>
<text text-anchor="middle" x="1340.02" y="-101.3" font-family="Times,serif" font-size="14.00">地理地区_国家历史文化名城[11]</text>
</g>
<!-- 地理地区_武汉市&#45;&gt;地理地区_国家历史文化名城[11] -->
<g id="edge8" class="edge">
<title>地理地区_武汉市&#45;&gt;地理地区_国家历史文化名城[11]</title>
<path fill="none" stroke="black" d="M659.33,-179.29C669.84,-177.36 680.73,-175.5 691,-174 801.3,-157.86 1079.22,-134.94 1190.02,-123 1202.52,-121.65 1215.72,-120.2 1228.82,-118.74"/>
<polygon fill="black" stroke="black" points="1229.17,-122.22 1238.72,-117.63 1228.39,-115.27 1229.17,-122.22"/>
<text text-anchor="middle" x="1013.52" y="-144.8" font-family="Times,serif" font-size="14.00">位于</text>
</g>
<!-- 地理地区_中国 -->
<g id="node10" class="node">
<title>地理地区_中国</title>
<ellipse fill="none" stroke="black" cx="148" cy="-18" rx="71" ry="18"/>
<text text-anchor="middle" x="148" y="-14.3" font-family="Times,serif" font-size="14.00">地理地区_中国</text>
</g>
<!-- 地理地区_湖北省&#45;&gt;地理地区_中国 -->
<g id="edge9" class="edge">
<title>地理地区_湖北省&#45;&gt;地理地区_中国</title>
<path fill="none" stroke="black" d="M148,-86.8C148,-75.16 148,-59.55 148,-46.24"/>
<polygon fill="black" stroke="black" points="151.5,-46.17 148,-36.17 144.5,-46.18 151.5,-46.17"/>
<text text-anchor="middle" x="162.5" y="-57.8" font-family="Times,serif" font-size="14.00">位于</text>
</g>
<!-- 地理地区_江汉区 -->
<g id="node11" class="node">
<title>地理地区_江汉区</title>
<ellipse fill="none" stroke="black" cx="1626.02" cy="-279" rx="80" ry="18"/>
<text text-anchor="middle" x="1626.02" y="-275.3" font-family="Times,serif" font-size="14.00">地理地区_江汉区</text>
</g>
<!-- 度量_43.28万人 -->
<g id="node12" class="node">
<title>度量_43.28万人</title>
<ellipse fill="none" stroke="black" cx="1400.02" cy="-192" rx="72.29" ry="18"/>
<text text-anchor="middle" x="1400.02" y="-188.3" font-family="Times,serif" font-size="14.00">度量_43.28万人</text>
</g>
<!-- 地理地区_江汉区&#45;&gt;度量_43.28万人 -->
<g id="edge10" class="edge">
<title>地理地区_江汉区&#45;&gt;度量_43.28万人</title>
<path fill="none" stroke="black" d="M1586.92,-263.29C1548.32,-248.77 1489.22,-226.56 1447.82,-210.99"/>
<polygon fill="black" stroke="black" points="1448.81,-207.62 1438.22,-207.39 1446.35,-214.18 1448.81,-207.62"/>
<text text-anchor="middle" x="1541.52" y="-231.8" font-family="Times,serif" font-size="14.00">人口</text>
</g>
<!-- 地理地区_武汉市汉口地区中部 -->
<g id="node13" class="node">
<title>地理地区_武汉市汉口地区中部</title>
<ellipse fill="none" stroke="black" cx="1626.02" cy="-192" rx="136" ry="18"/>
<text text-anchor="middle" x="1626.02" y="-188.3" font-family="Times,serif" font-size="14.00">地理地区_武汉市汉口地区中部</text>
</g>
<!-- 地理地区_江汉区&#45;&gt;地理地区_武汉市汉口地区中部 -->
<g id="edge11" class="edge">
<title>地理地区_江汉区&#45;&gt;地理地区_武汉市汉口地区中部</title>
<path fill="none" stroke="black" d="M1626.02,-260.8C1626.02,-249.16 1626.02,-233.55 1626.02,-220.24"/>
<polygon fill="black" stroke="black" points="1629.52,-220.18 1626.02,-210.18 1622.52,-220.18 1629.52,-220.18"/>
<text text-anchor="middle" x="1640.52" y="-231.8" font-family="Times,serif" font-size="14.00">位于</text>
</g>
<!-- 度量_33.43平方公里 -->
<g id="node14" class="node">
<title>度量_33.43平方公里</title>
<ellipse fill="none" stroke="black" cx="1871.02" cy="-192" rx="91" ry="18"/>
<text text-anchor="middle" x="1871.02" y="-188.3" font-family="Times,serif" font-size="14.00">度量_33.43平方公里</text>
</g>
<!-- 地理地区_江汉区&#45;&gt;度量_33.43平方公里 -->
<g id="edge12" class="edge">
<title>地理地区_江汉区&#45;&gt;度量_33.43平方公里</title>
<path fill="none" stroke="black" d="M1667.52,-263.58C1709.12,-249.15 1773.32,-226.9 1818.42,-211.25"/>
<polygon fill="black" stroke="black" points="1819.72,-214.5 1828.02,-207.92 1817.43,-207.89 1819.72,-214.5"/>
<text text-anchor="middle" x="1778.52" y="-231.8" font-family="Times,serif" font-size="14.00">面积</text>
</g>
<!-- 地理地区_汉阳区 -->
<g id="node15" class="node">
<title>地理地区_汉阳区</title>
<ellipse fill="none" stroke="black" cx="2259.02" cy="-279" rx="80" ry="18"/>
<text text-anchor="middle" x="2259.02" y="-275.3" font-family="Times,serif" font-size="14.00">地理地区_汉阳区</text>
</g>
<!-- 度量_83.73万人 -->
<g id="node16" class="node">
<title>度量_83.73万人</title>
<ellipse fill="none" stroke="black" cx="2052.02" cy="-192" rx="72.29" ry="18"/>
<text text-anchor="middle" x="2052.02" y="-188.3" font-family="Times,serif" font-size="14.00">度量_83.73万人</text>
</g>
<!-- 地理地区_汉阳区&#45;&gt;度量_83.73万人 -->
<g id="edge13" class="edge">
<title>地理地区_汉阳区&#45;&gt;度量_83.73万人</title>
<path fill="none" stroke="black" d="M2222.02,-262.8C2187.22,-248.51 2135.02,-227.08 2097.62,-211.74"/>
<polygon fill="black" stroke="black" points="2098.6,-208.36 2088.02,-207.78 2095.93,-214.83 2098.6,-208.36"/>
<text text-anchor="middle" x="2182.52" y="-231.8" font-family="Times,serif" font-size="14.00">人口</text>
</g>
<!-- 地理地区_武汉市区西南部 -->
<g id="node17" class="node">
<title>地理地区_武汉市区西南部</title>
<ellipse fill="none" stroke="black" cx="2259.02" cy="-192" rx="117" ry="18"/>
<text text-anchor="middle" x="2259.02" y="-188.3" font-family="Times,serif" font-size="14.00">地理地区_武汉市区西南部</text>
</g>
<!-- 地理地区_汉阳区&#45;&gt;地理地区_武汉市区西南部 -->
<g id="edge14" class="edge">
<title>地理地区_汉阳区&#45;&gt;地理地区_武汉市区西南部</title>
<path fill="none" stroke="black" d="M2259.02,-260.8C2259.02,-249.16 2259.02,-233.55 2259.02,-220.24"/>
<polygon fill="black" stroke="black" points="2262.52,-220.18 2259.02,-210.18 2255.52,-220.18 2262.52,-220.18"/>
<text text-anchor="middle" x="2273.52" y="-231.8" font-family="Times,serif" font-size="14.00">位于</text>
</g>
<!-- 建筑结构_琴断口街道十里铺芳草路1号 -->
<g id="node18" class="node">
<title>建筑结构_琴断口街道十里铺芳草路1号</title>
<ellipse fill="none" stroke="black" cx="2562.02" cy="-192" rx="167.87" ry="18"/>
<text text-anchor="middle" x="2562.02" y="-188.3" font-family="Times,serif" font-size="14.00">建筑结构_琴断口街道十里铺芳草路1号</text>
</g>
<!-- 地理地区_汉阳区&#45;&gt;建筑结构_琴断口街道十里铺芳草路1号 -->
<g id="edge15" class="edge">
<title>地理地区_汉阳区&#45;&gt;建筑结构_琴断口街道十里铺芳草路1号</title>
<path fill="none" stroke="black" d="M2307.02,-264.53C2357.92,-250.26 2438.62,-227.62 2495.52,-211.64"/>
<polygon fill="black" stroke="black" points="2496.52,-214.99 2505.22,-208.94 2494.65,-208.25 2496.52,-214.99"/>
<text text-anchor="middle" x="2458.02" y="-231.8" font-family="Times,serif" font-size="14.00">建筑结构</text>
</g>
<!-- 地理地区_东西湖区 -->
<g id="node19" class="node">
<title>地理地区_东西湖区</title>
<ellipse fill="none" stroke="black" cx="915" cy="-279" rx="89.08" ry="18"/>
<text text-anchor="middle" x="915" y="-275.3" font-family="Times,serif" font-size="14.00">地理地区_东西湖区</text>
</g>
<!-- 地理地区_东西湖区&#45;&gt;地理地区_武汉市 -->
<g id="edge16" class="edge">
<title>地理地区_东西湖区&#45;&gt;地理地区_武汉市</title>
<path fill="none" stroke="black" d="M864.02,-264.15C808.34,-249.03 719.32,-224.86 660.75,-208.95"/>
<polygon fill="black" stroke="black" points="661.48,-205.52 650.91,-206.28 659.64,-212.28 661.48,-205.52"/>
<text text-anchor="middle" x="792.5" y="-231.8" font-family="Times,serif" font-size="14.00">位于</text>
</g>
<!-- 组织_武汉市 -->
<g id="node20" class="node">
<title>组织_武汉市</title>
<ellipse fill="none" stroke="black" cx="1014.02" cy="-192" rx="61.99" ry="18"/>
<text text-anchor="middle" x="1014.02" y="-188.3" font-family="Times,serif" font-size="14.00">组织_武汉市</text>
</g>
<!-- 地理地区_东西湖区&#45;&gt;组织_武汉市 -->
<g id="edge17" class="edge">
<title>地理地区_东西湖区&#45;&gt;组织_武汉市</title>
<path fill="none" stroke="black" d="M934.56,-261.21C949.67,-248.23 970.74,-230.14 987.39,-215.85"/>
<polygon fill="black" stroke="black" points="989.85,-218.35 995.16,-209.18 985.29,-213.04 989.85,-218.35"/>
<text text-anchor="middle" x="985.5" y="-231.8" font-family="Times,serif" font-size="14.00">组织</text>
</g>
<!-- 地理地区_汉口西部近郊 -->
<g id="node21" class="node">
<title>地理地区_汉口西部近郊</title>
<ellipse fill="none" stroke="black" cx="1202.02" cy="-192" rx="108" ry="18"/>
<text text-anchor="middle" x="1202.02" y="-188.3" font-family="Times,serif" font-size="14.00">地理地区_汉口西部近郊</text>
</g>
<!-- 地理地区_东西湖区&#45;&gt;地理地区_汉口西部近郊 -->
<g id="edge18" class="edge">
<title>地理地区_东西湖区&#45;&gt;地理地区_汉口西部近郊</title>
<path fill="none" stroke="black" d="M963.04,-263.77C1012.12,-249.22 1088.62,-226.59 1141.72,-210.84"/>
<polygon fill="black" stroke="black" points="1142.81,-214.17 1151.42,-207.99 1140.84,-207.45 1142.81,-214.17"/>
<text text-anchor="middle" x="1090.52" y="-231.8" font-family="Times,serif" font-size="14.00">位于</text>
</g>
<!-- 地理地区_吴家山五环大道 -->
<g id="node22" class="node">
<title>地理地区_吴家山五环大道</title>
<ellipse fill="none" stroke="black" cx="817" cy="-192" rx="117" ry="18"/>
<text text-anchor="middle" x="817" y="-188.3" font-family="Times,serif" font-size="14.00">地理地区_吴家山五环大道</text>
</g>
<!-- 地理地区_东西湖区&#45;&gt;地理地区_吴家山五环大道 -->
<g id="edge19" class="edge">
<title>地理地区_东西湖区&#45;&gt;地理地区_吴家山五环大道</title>
<path fill="none" stroke="black" d="M895.64,-261.21C880.88,-248.4 860.36,-230.61 843.99,-216.4"/>
<polygon fill="black" stroke="black" points="846.18,-213.67 836.33,-209.76 841.59,-218.95 846.18,-213.67"/>
<text text-anchor="middle" x="886.5" y="-231.8" font-family="Times,serif" font-size="14.00">位于</text>
</g>
</g>
</svg>
